<svg xmlns="http://www.w3.org/2000/svg" xmlns:xlink="http://www.w3.org/1999/xlink" contentStyleType="text/css" data-diagram-type="CLASS" preserveAspectRatio="xMinYMin meet" style="background:#FFFFFF;" version="1.1" viewBox="0 0 1638 336">
<defs/><g><!--cluster Domain--><g class="cluster" data-entity="Domain" data-source-line="3" data-uid="ent0002" id="cluster_Domain"><path d="M13.5,11 L74.54,11 A3.75,3.75 0 0 1 77.04,13.5 L84.04,33.2969 L291.5,33.2969 A2.5,2.5 0 0 1 294,35.7969 L294,326.5 A2.5,2.5 0 0 1 291.5,329 L13.5,329 A2.5,2.5 0 0 1 11,326.5 L11,13.5 A2.5,2.5 0 0 1 13.5,11" fill="#FFFFFF" style="stroke:#000000;stroke-width:1;"/><line style="stroke:#000000;stroke-width:1;" x1="11" x2="84.04" y1="33.2969" y2="33.2969"/><text fill="#000000" font-family="Verdana" font-size="14" font-weight="bold" lengthAdjust="spacing" textLength="60.04" x="15" y="25.9951">Domain</text></g><!--cluster Application--><g class="cluster" data-entity="Application" data-source-line="14" data-uid="ent0010" id="cluster_Application"><path d="M320.5,115 L410.7979,115 A3.75,3.75 0 0 1 413.2979,117.5 L420.2979,137.2969 L769.5,137.2969 A2.5,2.5 0 0 1 772,139.7969 L772,326.5 A2.5,2.5 0 0 1 769.5,329 L320.5,329 A2.5,2.5 0 0 1 318,326.5 L318,117.5 A2.5,2.5 0 0 1 320.5,115" fill="#FFFFFF" style="stroke:#000000;stroke-width:1;"/><line style="stroke:#000000;stroke-width:1;" x1="318" x2="420.2979" y1="137.2969" y2="137.2969"/><text fill="#000000" font-family="Verdana" font-size="14" font-weight="bold" lengthAdjust="spacing" textLength="89.2979" x="322" y="129.9951">Application</text></g><!--cluster Adapters--><g class="cluster" data-entity="Adapters" data-source-line="23" data-uid="ent0016" id="cluster_Adapters"><path d="M798.5,11 L871.25,11 A3.75,3.75 0 0 1 873.75,13.5 L880.75,33.2969 L1628.5,33.2969 A2.5,2.5 0 0 1 1631,35.7969 L1631,207.5 A2.5,2.5 0 0 1 1628.5,210 L798.5,210 A2.5,2.5 0 0 1 796,207.5 L796,13.5 A2.5,2.5 0 0 1 798.5,11" fill="#FFFFFF" style="stroke:#000000;stroke-width:1;"/><line style="stroke:#000000;stroke-width:1;" x1="796" x2="880.75" y1="33.2969" y2="33.2969"/><text fill="#000000" font-family="Verdana" font-size="14" font-weight="bold" lengthAdjust="spacing" textLength="71.75" x="800" y="25.9951">Adapters</text></g><!--cluster Frameworks and Drivers--><g class="cluster" data-entity="Frameworks and Drivers" data-source-line="38" data-uid="ent0027" id="cluster_Frameworks and Drivers"><path d="M964.5,234 L1158.9639,234 A3.75,3.75 0 0 1 1161.4639,236.5 L1168.4639,256.2969 L1168.5,256.2969 A2.5,2.5 0 0 1 1171,258.7969 L1171,326.5 A2.5,2.5 0 0 1 1168.5,329 L964.5,329 A2.5,2.5 0 0 1 962,326.5 L962,236.5 A2.5,2.5 0 0 1 964.5,234" fill="#FFFFFF" style="stroke:#000000;stroke-width:1;"/><line style="stroke:#000000;stroke-width:1;" x1="962" x2="1168.4639" y1="256.2969" y2="256.2969"/><text fill="#000000" font-family="Verdana" font-size="14" font-weight="bold" lengthAdjust="spacing" textLength="193.4639" x="966" y="248.9951">Frameworks and Drivers</text></g><!--class Product--><g class="entity" data-entity="Product" data-source-line="4" data-uid="ent0003" id="entity_Product"><rect fill="#FFFFFF" height="44" rx="2.5" ry="2.5" style="stroke:#000000;stroke-width:1;" width="81.71" x="196.15" y="269"/><ellipse cx="209.15" cy="283" fill="#FFFFFF" rx="9" ry="9" style="stroke:#000000;stroke-width:1;"/><path d="M212.1188,288.6406 Q211.5406,288.9375 210.9,289.0781 Q210.2594,289.2344 209.5563,289.2344 Q207.0563,289.2344 205.7281,287.5938 Q204.4156,285.9375 204.4156,282.8125 Q204.4156,279.6875 205.7281,278.0313 Q207.0563,276.375 209.5563,276.375 Q210.2594,276.375 210.9,276.5313 Q211.5563,276.6875 212.1188,276.9844 L212.1188,279.7031 Q211.4938,279.125 210.9,278.8594 Q210.3063,278.5781 209.6813,278.5781 Q208.3375,278.5781 207.65,279.6563 Q206.9625,280.7188 206.9625,282.8125 Q206.9625,284.9063 207.65,285.9844 Q208.3375,287.0469 209.6813,287.0469 Q210.3063,287.0469 210.9,286.7813 Q211.4938,286.5 212.1188,285.9219 L212.1188,288.6406 Z " fill="#000000"/><text fill="#000000" font-family="Verdana" font-size="14" lengthAdjust="spacing" textLength="53.71" x="221.15" y="287.8467">Product</text><line style="stroke:#000000;stroke-width:1;" x1="197.15" x2="276.86" y1="297" y2="297"/><line style="stroke:#000000;stroke-width:1;" x1="197.15" x2="276.86" y1="305" y2="305"/></g><!--class Package--><g class="entity" data-entity="Package" data-source-line="5" data-uid="ent0004" id="entity_Package"><rect fill="#FFFFFF" height="44" rx="2.5" ry="2.5" style="stroke:#000000;stroke-width:1;" width="86.9053" x="126.55" y="46"/><ellipse cx="139.55" cy="60" fill="#FFFFFF" rx="9" ry="9" style="stroke:#000000;stroke-width:1;"/><path d="M142.5188,65.6406 Q141.9406,65.9375 141.3,66.0781 Q140.6594,66.2344 139.9563,66.2344 Q137.4563,66.2344 136.1281,64.5938 Q134.8156,62.9375 134.8156,59.8125 Q134.8156,56.6875 136.1281,55.0313 Q137.4563,53.375 139.9563,53.375 Q140.6594,53.375 141.3,53.5313 Q141.9563,53.6875 142.5188,53.9844 L142.5188,56.7031 Q141.8938,56.125 141.3,55.8594 Q140.7063,55.5781 140.0813,55.5781 Q138.7375,55.5781 138.05,56.6563 Q137.3625,57.7188 137.3625,59.8125 Q137.3625,61.9063 138.05,62.9844 Q138.7375,64.0469 140.0813,64.0469 Q140.7063,64.0469 141.3,63.7813 Q141.8938,63.5 142.5188,62.9219 L142.5188,65.6406 Z " fill="#000000"/><text fill="#000000" font-family="Verdana" font-size="14" lengthAdjust="spacing" textLength="58.9053" x="151.55" y="64.8467">Package</text><line style="stroke:#000000;stroke-width:1;" x1="127.55" x2="212.4553" y1="74" y2="74"/><line style="stroke:#000000;stroke-width:1;" x1="127.55" x2="212.4553" y1="82" y2="82"/></g><!--class ReceivingPackage--><g class="entity" data-entity="ReceivingPackage" data-source-line="6" data-uid="ent0005" id="entity_ReceivingPackage"><rect fill="#FFFFFF" height="44" rx="2.5" ry="2.5" style="stroke:#000000;stroke-width:1;" width="155.3809" x="27.31" y="150"/><ellipse cx="40.31" cy="164" fill="#FFFFFF" rx="9" ry="9" style="stroke:#000000;stroke-width:1;"/><path d="M43.2788,169.6406 Q42.7006,169.9375 42.06,170.0781 Q41.4194,170.2344 40.7163,170.2344 Q38.2163,170.2344 36.8881,168.5938 Q35.5756,166.9375 35.5756,163.8125 Q35.5756,160.6875 36.8881,159.0313 Q38.2163,157.375 40.7163,157.375 Q41.4194,157.375 42.06,157.5313 Q42.7163,157.6875 43.2788,157.9844 L43.2788,160.7031 Q42.6538,160.125 42.06,159.8594 Q41.4663,159.5781 40.8413,159.5781 Q39.4975,159.5781 38.81,160.6563 Q38.1225,161.7188 38.1225,163.8125 Q38.1225,165.9063 38.81,166.9844 Q39.4975,168.0469 40.8413,168.0469 Q41.4663,168.0469 42.06,167.7813 Q42.6538,167.5 43.2788,166.9219 L43.2788,169.6406 Z " fill="#000000"/><text fill="#000000" font-family="Verdana" font-size="14" lengthAdjust="spacing" textLength="127.3809" x="52.31" y="168.8467">ReceivingPackage</text><line style="stroke:#000000;stroke-width:1;" x1="28.31" x2="181.6909" y1="178" y2="178"/><line style="stroke:#000000;stroke-width:1;" x1="28.31" x2="181.6909" y1="186" y2="186"/></g><!--class Item--><g class="entity" data-entity="Item" data-source-line="7" data-uid="ent0006" id="entity_Item"><rect fill="#FFFFFF" height="44" rx="2.5" ry="2.5" style="stroke:#000000;stroke-width:1;" width="59.8691" x="218.07" y="150"/><ellipse cx="231.07" cy="164" fill="#FFFFFF" rx="9" ry="9" style="stroke:#000000;stroke-width:1;"/><path d="M234.0388,169.6406 Q233.4606,169.9375 232.82,170.0781 Q232.1794,170.2344 231.4763,170.2344 Q228.9763,170.2344 227.6481,168.5938 Q226.3356,166.9375 226.3356,163.8125 Q226.3356,160.6875 227.6481,159.0313 Q228.9763,157.375 231.4763,157.375 Q232.1794,157.375 232.82,157.5313 Q233.4763,157.6875 234.0388,157.9844 L234.0388,160.7031 Q233.4138,160.125 232.82,159.8594 Q232.2263,159.5781 231.6013,159.5781 Q230.2575,159.5781 229.57,160.6563 Q228.8825,161.7188 228.8825,163.8125 Q228.8825,165.9063 229.57,166.9844 Q230.2575,168.0469 231.6013,168.0469 Q232.2263,168.0469 232.82,167.7813 Q233.4138,167.5 234.0388,166.9219 L234.0388,169.6406 Z " fill="#000000"/><text fill="#000000" font-family="Verdana" font-size="14" lengthAdjust="spacing" textLength="31.8691" x="243.07" y="168.8467">Item</text><line style="stroke:#000000;stroke-width:1;" x1="219.07" x2="276.9391" y1="178" y2="178"/><line style="stroke:#000000;stroke-width:1;" x1="219.07" x2="276.9391" y1="186" y2="186"/></g><!--class RegisterPackage--><g class="entity" data-entity="RegisterPackage" data-source-line="15" data-uid="ent0011" id="entity_RegisterPackage"><rect fill="#FFFFFF" height="44" rx="2.5" ry="2.5" style="stroke:#000000;stroke-width:1;" width="145.1748" x="568.41" y="150"/><ellipse cx="581.41" cy="164" fill="#FFFFFF" rx="9" ry="9" style="stroke:#000000;stroke-width:1;"/><path d="M584.3788,169.6406 Q583.8006,169.9375 583.16,170.0781 Q582.5194,170.2344 581.8163,170.2344 Q579.3163,170.2344 577.9881,168.5938 Q576.6756,166.9375 576.6756,163.8125 Q576.6756,160.6875 577.9881,159.0313 Q579.3163,157.375 581.8163,157.375 Q582.5194,157.375 583.16,157.5313 Q583.8163,157.6875 584.3788,157.9844 L584.3788,160.7031 Q583.7538,160.125 583.16,159.8594 Q582.5663,159.5781 581.9413,159.5781 Q580.5975,159.5781 579.91,160.6563 Q579.2225,161.7188 579.2225,163.8125 Q579.2225,165.9063 579.91,166.9844 Q580.5975,168.0469 581.9413,168.0469 Q582.5663,168.0469 583.16,167.7813 Q583.7538,167.5 584.3788,166.9219 L584.3788,169.6406 Z " fill="#000000"/><text fill="#000000" font-family="Verdana" font-size="14" lengthAdjust="spacing" textLength="117.1748" x="593.41" y="168.8467">RegisterPackage</text><line style="stroke:#000000;stroke-width:1;" x1="569.41" x2="712.5848" y1="178" y2="178"/><line style="stroke:#000000;stroke-width:1;" x1="569.41" x2="712.5848" y1="186" y2="186"/></g><!--class ProductRepository--><g class="entity" data-entity="ProductRepository" data-source-line="16" data-uid="ent0012" id="entity_ProductRepository"><rect fill="#FFFFFF" height="44" rx="2.5" ry="2.5" style="stroke:#000000;stroke-width:1;" width="156.7822" x="333.61" y="269"/><ellipse cx="346.61" cy="283" fill="#FFFFFF" rx="9" ry="9" style="stroke:#000000;stroke-width:1;"/><path d="M342.5319,278.7656 L342.5319,276.6094 L349.9225,276.6094 L349.9225,278.7656 L347.4538,278.7656 L347.4538,286.8438 L349.9225,286.8438 L349.9225,289 L342.5319,289 L342.5319,286.8438 L345.0006,286.8438 L345.0006,278.7656 L342.5319,278.7656 Z " fill="#000000"/><text fill="#000000" font-family="Verdana" font-size="14" font-style="italic" lengthAdjust="spacing" textLength="128.7822" x="358.61" y="287.8467">ProductRepository</text><line style="stroke:#000000;stroke-width:1;" x1="334.61" x2="489.3922" y1="297" y2="297"/><line style="stroke:#000000;stroke-width:1;" x1="334.61" x2="489.3922" y1="305" y2="305"/></g><!--class ReceivingPackageRepository--><g class="entity" data-entity="ReceivingPackageRepository" data-source-line="17" data-uid="ent0013" id="entity_ReceivingPackageRepository"><rect fill="#FFFFFF" height="44" rx="2.5" ry="2.5" style="stroke:#000000;stroke-width:1;" width="230.4531" x="525.77" y="269"/><ellipse cx="538.77" cy="283" fill="#FFFFFF" rx="9" ry="9" style="stroke:#000000;stroke-width:1;"/><path d="M534.6919,278.7656 L534.6919,276.6094 L542.0825,276.6094 L542.0825,278.7656 L539.6138,278.7656 L539.6138,286.8438 L542.0825,286.8438 L542.0825,289 L534.6919,289 L534.6919,286.8438 L537.1606,286.8438 L537.1606,278.7656 L534.6919,278.7656 Z " fill="#000000"/><text fill="#000000" font-family="Verdana" font-size="14" font-style="italic" lengthAdjust="spacing" textLength="202.4531" x="550.77" y="287.8467">ReceivingPackageRepository</text><line style="stroke:#000000;stroke-width:1;" x1="526.77" x2="755.2231" y1="297" y2="297"/><line style="stroke:#000000;stroke-width:1;" x1="526.77" x2="755.2231" y1="305" y2="305"/></g><!--class ProductRepositoryGateway--><g class="entity" data-entity="ProductRepositoryGateway" data-source-line="24" data-uid="ent0017" id="entity_ProductRepositoryGateway"><rect fill="#FFFFFF" height="44" rx="2.5" ry="2.5" style="stroke:#000000;stroke-width:1;" width="218.627" x="811.69" y="150"/><ellipse cx="824.69" cy="164" fill="#FFFFFF" rx="9" ry="9" style="stroke:#000000;stroke-width:1;"/><path d="M827.6588,169.6406 Q827.0806,169.9375 826.44,170.0781 Q825.7994,170.2344 825.0963,170.2344 Q822.5963,170.2344 821.2681,168.5938 Q819.9556,166.9375 819.9556,163.8125 Q819.9556,160.6875 821.2681,159.0313 Q822.5963,157.375 825.0963,157.375 Q825.7994,157.375 826.44,157.5313 Q827.0963,157.6875 827.6588,157.9844 L827.6588,160.7031 Q827.0338,160.125 826.44,159.8594 Q825.8463,159.5781 825.2213,159.5781 Q823.8775,159.5781 823.19,160.6563 Q822.5025,161.7188 822.5025,163.8125 Q822.5025,165.9063 823.19,166.9844 Q823.8775,168.0469 825.2213,168.0469 Q825.8463,168.0469 826.44,167.7813 Q827.0338,167.5 827.6588,166.9219 L827.6588,169.6406 Z " fill="#000000"/><text fill="#000000" font-family="Verdana" font-size="14" lengthAdjust="spacing" textLength="190.627" x="836.69" y="168.8467">ProductRepositoryGateway</text><line style="stroke:#000000;stroke-width:1;" x1="812.69" x2="1029.317" y1="178" y2="178"/><line style="stroke:#000000;stroke-width:1;" x1="812.69" x2="1029.317" y1="186" y2="186"/></g><!--class ReceivingPackageRepositoryGateway--><g class="entity" data-entity="ReceivingPackageRepositoryGateway" data-source-line="25" data-uid="ent0018" id="entity_ReceivingPackageRepositoryGateway"><rect fill="#FFFFFF" height="44" rx="2.5" ry="2.5" style="stroke:#000000;stroke-width:1;" width="292.2979" x="1064.85" y="150"/><ellipse cx="1077.85" cy="164" fill="#FFFFFF" rx="9" ry="9" style="stroke:#000000;stroke-width:1;"/><path d="M1080.8188,169.6406 Q1080.2406,169.9375 1079.6,170.0781 Q1078.9594,170.2344 1078.2563,170.2344 Q1075.7563,170.2344 1074.4281,168.5938 Q1073.1156,166.9375 1073.1156,163.8125 Q1073.1156,160.6875 1074.4281,159.0313 Q1075.7563,157.375 1078.2563,157.375 Q1078.9594,157.375 1079.6,157.5313 Q1080.2563,157.6875 1080.8188,157.9844 L1080.8188,160.7031 Q1080.1938,160.125 1079.6,159.8594 Q1079.0063,159.5781 1078.3813,159.5781 Q1077.0375,159.5781 1076.35,160.6563 Q1075.6625,161.7188 1075.6625,163.8125 Q1075.6625,165.9063 1076.35,166.9844 Q1077.0375,168.0469 1078.3813,168.0469 Q1079.0063,168.0469 1079.6,167.7813 Q1080.1938,167.5 1080.8188,166.9219 L1080.8188,169.6406 Z " fill="#000000"/><text fill="#000000" font-family="Verdana" font-size="14" lengthAdjust="spacing" textLength="264.2979" x="1089.85" y="168.8467">ReceivingPackageRepositoryGateway</text><line style="stroke:#000000;stroke-width:1;" x1="1065.85" x2="1356.1479" y1="178" y2="178"/><line style="stroke:#000000;stroke-width:1;" x1="1065.85" x2="1356.1479" y1="186" y2="186"/></g><!--class PackageController--><g class="entity" data-entity="PackageController" data-source-line="26" data-uid="ent0019" id="entity_PackageController"><rect fill="#FFFFFF" height="44" rx="2.5" ry="2.5" style="stroke:#000000;stroke-width:1;" width="156.0781" x="987.96" y="46"/><ellipse cx="1000.96" cy="60" fill="#FFFFFF" rx="9" ry="9" style="stroke:#000000;stroke-width:1;"/><path d="M1003.9288,65.6406 Q1003.3506,65.9375 1002.71,66.0781 Q1002.0694,66.2344 1001.3663,66.2344 Q998.8663,66.2344 997.5381,64.5938 Q996.2256,62.9375 996.2256,59.8125 Q996.2256,56.6875 997.5381,55.0313 Q998.8663,53.375 1001.3663,53.375 Q1002.0694,53.375 1002.71,53.5313 Q1003.3663,53.6875 1003.9288,53.9844 L1003.9288,56.7031 Q1003.3038,56.125 1002.71,55.8594 Q1002.1163,55.5781 1001.4913,55.5781 Q1000.1475,55.5781 999.46,56.6563 Q998.7725,57.7188 998.7725,59.8125 Q998.7725,61.9063 999.46,62.9844 Q1000.1475,64.0469 1001.4913,64.0469 Q1002.1163,64.0469 1002.71,63.7813 Q1003.3038,63.5 1003.9288,62.9219 L1003.9288,65.6406 Z " fill="#000000"/><text fill="#000000" font-family="Verdana" font-size="14" lengthAdjust="spacing" textLength="128.0781" x="1012.96" y="64.8467">PackageController</text><line style="stroke:#000000;stroke-width:1;" x1="988.96" x2="1143.0381" y1="74" y2="74"/><line style="stroke:#000000;stroke-width:1;" x1="988.96" x2="1143.0381" y1="82" y2="82"/></g><!--class ReceivingPackagePresenter--><g class="entity" data-entity="ReceivingPackagePresenter" data-source-line="27" data-uid="ent0020" id="entity_ReceivingPackagePresenter"><rect fill="#FFFFFF" height="44" rx="2.5" ry="2.5" style="stroke:#000000;stroke-width:1;" width="222.8311" x="1392.58" y="150"/><ellipse cx="1405.58" cy="164" fill="#FFFFFF" rx="9" ry="9" style="stroke:#000000;stroke-width:1;"/><path d="M1408.5488,169.6406 Q1407.9706,169.9375 1407.33,170.0781 Q1406.6894,170.2344 1405.9863,170.2344 Q1403.4863,170.2344 1402.1581,168.5938 Q1400.8456,166.9375 1400.8456,163.8125 Q1400.8456,160.6875 1402.1581,159.0313 Q1403.4863,157.375 1405.9863,157.375 Q1406.6894,157.375 1407.33,157.5313 Q1407.9863,157.6875 1408.5488,157.9844 L1408.5488,160.7031 Q1407.9238,160.125 1407.33,159.8594 Q1406.7363,159.5781 1406.1113,159.5781 Q1404.7675,159.5781 1404.08,160.6563 Q1403.3925,161.7188 1403.3925,163.8125 Q1403.3925,165.9063 1404.08,166.9844 Q1404.7675,168.0469 1406.1113,168.0469 Q1406.7363,168.0469 1407.33,167.7813 Q1407.9238,167.5 1408.5488,166.9219 L1408.5488,169.6406 Z " fill="#000000"/><text fill="#000000" font-family="Verdana" font-size="14" lengthAdjust="spacing" textLength="194.8311" x="1417.58" y="168.8467">ReceivingPackagePresenter</text><line style="stroke:#000000;stroke-width:1;" x1="1393.58" x2="1614.4111" y1="178" y2="178"/><line style="stroke:#000000;stroke-width:1;" x1="1393.58" x2="1614.4111" y1="186" y2="186"/></g><!--class PrismaDatasource--><g class="entity" data-entity="PrismaDatasource" data-source-line="39" data-uid="ent0028" id="entity_PrismaDatasource"><rect fill="#FFFFFF" height="44" rx="2.5" ry="2.5" style="stroke:#000000;stroke-width:1;" width="155.8252" x="988.09" y="269"/><ellipse cx="1001.09" cy="283" fill="#FFFFFF" rx="9" ry="9" style="stroke:#000000;stroke-width:1;"/><path d="M1004.0588,288.6406 Q1003.4806,288.9375 1002.84,289.0781 Q1002.1994,289.2344 1001.4963,289.2344 Q998.9963,289.2344 997.6681,287.5938 Q996.3556,285.9375 996.3556,282.8125 Q996.3556,279.6875 997.6681,278.0313 Q998.9963,276.375 1001.4963,276.375 Q1002.1994,276.375 1002.84,276.5313 Q1003.4963,276.6875 1004.0588,276.9844 L1004.0588,279.7031 Q1003.4338,279.125 1002.84,278.8594 Q1002.2463,278.5781 1001.6213,278.5781 Q1000.2775,278.5781 999.59,279.6563 Q998.9025,280.7188 998.9025,282.8125 Q998.9025,284.9063 999.59,285.9844 Q1000.2775,287.0469 1001.6213,287.0469 Q1002.2463,287.0469 1002.84,286.7813 Q1003.4338,286.5 1004.0588,285.9219 L1004.0588,288.6406 Z " fill="#000000"/><text fill="#000000" font-family="Verdana" font-size="14" lengthAdjust="spacing" textLength="127.8252" x="1013.09" y="287.8467">PrismaDatasource</text><line style="stroke:#000000;stroke-width:1;" x1="989.09" x2="1142.9152" y1="297" y2="297"/><line style="stroke:#000000;stroke-width:1;" x1="989.09" x2="1142.9152" y1="305" y2="305"/></g><!--reverse link Package to ReceivingPackage--><g class="link" data-entity-1="Package" data-entity-2="ReceivingPackage" data-source-line="9" data-uid="lnk7" id="link_Package_ReceivingPackage"><path codeLine="9" d="M146.8578,105.3105 C135.7778,122.7005 129.81,132.06 118.67,149.54" fill="none" id="Package-backto-ReceivingPackage" style="stroke:#000000;stroke-width:1;"/><polygon fill="none" points="156.53,90.13,141.7976,102.0864,151.9179,108.5346,156.53,90.13" style="stroke:#000000;stroke-width:1;"/></g><!--reverse link Package to Item--><g class="link" data-entity-1="Package" data-entity-2="Item" data-source-line="10" data-uid="lnk8" id="link_Package_Item"><path codeLine="10" d="M194.3429,99.6508 C198.6429,105.1008 195.8,101.54 200,107 C210.84,121.09 222.84,137.09 232.13,149.57" fill="none" id="Package-backto-Item" style="stroke:#000000;stroke-width:1;"/><polygon fill="none" points="186.91,90.23,187.4862,97.418,194.3429,99.6508,193.7667,92.4628,186.91,90.23" style="stroke:#000000;stroke-width:1;"/><text fill="#000000" font-family="Verdana" font-size="13" lengthAdjust="spacing" textLength="8.271" x="182.2522" y="109.9322">1</text><text fill="#000000" font-family="Verdana" font-size="13" lengthAdjust="spacing" textLength="6.5" x="221.3575" y="138.9843">*</text></g><!--link Item to Product--><g class="link" data-entity-1="Item" data-entity-2="Product" data-source-line="11" data-uid="lnk9" id="link_Item_Product"><path codeLine="11" d="M245.98,194.46 C244,215.57 241.5542,241.6366 239.5642,262.7066" fill="none" id="Item-to-Product" style="stroke:#000000;stroke-width:1;"/><polygon fill="#000000" points="239,268.68,243.8285,260.096,239.4701,263.7022,235.864,259.3438,239,268.68" style="stroke:#000000;stroke-width:1;"/><text fill="#000000" font-family="Verdana" font-size="13" lengthAdjust="spacing" textLength="8.271" x="236.4709" y="214.2212">1</text><text fill="#000000" font-family="Verdana" font-size="13" lengthAdjust="spacing" textLength="8.271" x="230.4976" y="257.7506">1</text></g><!--link RegisterPackage to ProductRepository--><g class="link" data-entity-1="RegisterPackage" data-entity-2="ProductRepository" data-source-line="19" data-uid="lnk14" id="link_RegisterPackage_ProductRepository"><path codeLine="19" d="M579.55,194.41 C556.62,203.19 530.67,214.1 508,226 C484.24,238.48 463.929,251.9379 445.319,265.2579" fill="none" id="RegisterPackage-to-ProductRepository" style="stroke:#000000;stroke-width:1;"/><polygon fill="#000000" points="440.44,268.75,450.0866,266.7645,444.5059,265.8399,445.4305,260.2591,440.44,268.75" style="stroke:#000000;stroke-width:1;"/></g><!--link RegisterPackage to ReceivingPackageRepository--><g class="link" data-entity-1="RegisterPackage" data-entity-2="ReceivingPackageRepository" data-source-line="20" data-uid="lnk15" id="link_RegisterPackage_ReceivingPackageRepository"><path codeLine="20" d="M641,194.46 C641,215.57 641,241.61 641,262.68" fill="none" id="RegisterPackage-to-ReceivingPackageRepository" style="stroke:#000000;stroke-width:1;"/><polygon fill="#000000" points="641,268.68,645,259.68,641,263.68,637,259.68,641,268.68" style="stroke:#000000;stroke-width:1;"/></g><!--link ProductRepositoryGateway to ProductRepository--><g class="link" data-entity-1="ProductRepositoryGateway" data-entity-2="ProductRepository" data-source-line="29" data-uid="lnk21" id="link_ProductRepositoryGateway_ProductRepository"><path codeLine="29" d="M862.75,194.48 C835.56,203.49 802.54,213.02 772,218 C714.07,227.46 563.91,208.14 508,226 C480.71,234.71 467.8729,242.2394 449.5629,257.2694" fill="none" id="ProductRepositoryGateway-to-ProductRepository" style="stroke:#000000;stroke-width:1;stroke-dasharray:7,7;"/><polygon fill="none" points="435.65,268.69,453.3698,261.907,445.7561,252.6317,435.65,268.69" style="stroke:#000000;stroke-width:1;"/></g><!--link ReceivingPackageRepositoryGateway to ReceivingPackageRepository--><g class="link" data-entity-1="ReceivingPackageRepositoryGateway" data-entity-2="ReceivingPackageRepository" data-source-line="30" data-uid="lnk22" id="link_ReceivingPackageRepositoryGateway_ReceivingPackageRepository"><path codeLine="30" d="M1142.99,194.47 C1113.97,202.92 1079.59,212.02 1048,218 C1014.63,224.32 1005.59,220.99 972,226 C893.7,237.67 823.3731,251.2056 757.8231,264.8356" fill="none" id="ReceivingPackageRepositoryGateway-to-ReceivingPackageRepository" style="stroke:#000000;stroke-width:1;stroke-dasharray:7,7;"/><polygon fill="none" points="740.2,268.5,759.0445,270.7099,756.6016,258.9612,740.2,268.5" style="stroke:#000000;stroke-width:1;"/></g><!--link PackageController to ProductRepositoryGateway--><g class="link" data-entity-1="PackageController" data-entity-2="ProductRepositoryGateway" data-source-line="32" data-uid="lnk23" id="link_PackageController_ProductRepositoryGateway"><path codeLine="32" d="M1035.6,90.38 C1010.86,107.79 980.9961,128.7861 956.2661,146.1961" fill="none" id="PackageController-to-ProductRepositoryGateway" style="stroke:#000000;stroke-width:1;"/><polygon fill="#000000" points="951.36,149.65,961.0218,147.7398,955.4485,146.7717,956.4166,141.1983,951.36,149.65" style="stroke:#000000;stroke-width:1;"/></g><!--link PackageController to ReceivingPackageRepositoryGateway--><g class="link" data-entity-1="PackageController" data-entity-2="ReceivingPackageRepositoryGateway" data-source-line="33" data-uid="lnk24" id="link_PackageController_ReceivingPackageRepositoryGateway"><path codeLine="33" d="M1096.4,90.38 C1121.14,107.79 1151.0039,128.7861 1175.7339,146.1961" fill="none" id="PackageController-to-ReceivingPackageRepositoryGateway" style="stroke:#000000;stroke-width:1;"/><polygon fill="#000000" points="1180.64,149.65,1175.5834,141.1983,1176.5515,146.7717,1170.9782,147.7398,1180.64,149.65" style="stroke:#000000;stroke-width:1;"/></g><!--link PackageController to RegisterPackage--><g class="link" data-entity-1="PackageController" data-entity-2="RegisterPackage" data-source-line="34" data-uid="lnk25" id="link_PackageController_RegisterPackage"><path codeLine="34" d="M987.56,74.79 C933.1,80.07 859.26,89.78 796,107 C757.09,117.59 720.3621,132.9233 689.8421,147.0933" fill="none" id="PackageController-to-RegisterPackage" style="stroke:#000000;stroke-width:1;"/><polygon fill="#000000" points="684.4,149.62,694.2475,149.458,688.935,147.5144,690.8786,142.202,684.4,149.62" style="stroke:#000000;stroke-width:1;"/></g><!--link PackageController to ReceivingPackagePresenter--><g class="link" data-entity-1="PackageController" data-entity-2="ReceivingPackagePresenter" data-source-line="35" data-uid="lnk26" id="link_PackageController_ReceivingPackagePresenter"><path codeLine="35" d="M1144.32,71.35 C1207.69,74.97 1298.64,84.09 1375,107 C1408.41,117.02 1438.5,132.1541 1463.71,146.5541" fill="none" id="PackageController-to-ReceivingPackagePresenter" style="stroke:#000000;stroke-width:1;"/><polygon fill="#000000" points="1468.92,149.53,1463.089,141.5928,1464.5784,147.05,1459.1211,148.5394,1468.92,149.53" style="stroke:#000000;stroke-width:1;"/></g><!--link ProductRepositoryGateway to PrismaDatasource--><g class="link" data-entity-1="ProductRepositoryGateway" data-entity-2="PrismaDatasource" data-source-line="41" data-uid="lnk29" id="link_ProductRepositoryGateway_PrismaDatasource"><path codeLine="41" d="M947.6,194.46 C973.76,215.57 1008.8014,243.8411 1034.9014,264.9111" fill="none" id="ProductRepositoryGateway-to-PrismaDatasource" style="stroke:#000000;stroke-width:1;"/><polygon fill="#000000" points="1039.57,268.68,1035.0797,259.9143,1035.6795,265.5393,1030.0545,266.1391,1039.57,268.68" style="stroke:#000000;stroke-width:1;"/></g><!--link ReceivingPackageRepositoryGateway to PrismaDatasource--><g class="link" data-entity-1="ReceivingPackageRepositoryGateway" data-entity-2="PrismaDatasource" data-source-line="42" data-uid="lnk30" id="link_ReceivingPackageRepositoryGateway_PrismaDatasource"><path codeLine="42" d="M1184.4,194.46 C1158.24,215.57 1123.1986,243.8411 1097.0986,264.9111" fill="none" id="ReceivingPackageRepositoryGateway-to-PrismaDatasource" style="stroke:#000000;stroke-width:1;"/><polygon fill="#000000" points="1092.43,268.68,1101.9455,266.1391,1096.3205,265.5393,1096.9203,259.9143,1092.43,268.68" style="stroke:#000000;stroke-width:1;"/></g><!--SRC=[ZLBBQiCm4BpxAxOw5XpelHHAJKjkmN-mo5jNHBQ4f2I49lzULOxhHoJN9x6xCwlHZ1xS5pK4Mg9eiqmZtsDDm0hL-0Q3xmo0IxGMTaPL1-w6keF-rILn4aVHrlF1rb6J-UhMX-TBdiVG_PmzCL0UmXvPnuLmX7wUluIp5tCTINxLMWgEJgY9xf9gOHsPuIBH-l8JEVLhIjBA2gVCUJATQnp1F6wsDqYBxOlX5ZPFNbIXzamRYM5WVA2Z4vwJEQIHDy2RQfrHKf99xjWPilJhIyWneG0scqlAWdyaTTHbl-_KnXqV7XadhB4dnPn_f7Kt3EQDitqtsD19cRq5R2ieZ3ZU9IriWmKwjEfWE2rwttan8wnnFagy_W00]--></g></svg>